<svg width="182" height="48" viewBox="0 0 182 48" fill="none" xmlns="http://www.w3.org/2000/svg">
<path d="M27.5037 32.9343V36.4963C28.7299 35.6204 29.9562 34.7445 31.1241 33.6934C32.8759 32.1751 34.3942 30.3649 35.7372 28.6131V23.0073L27.5037 32.9343Z" fill="#3B5F9D"/>
<path d="M35.6788 20.7299V6.59856C35.6788 6.30659 35.4453 6.24819 35.1533 6.54016L28.0292 12.2628C27.7372 12.4964 27.5037 12.9635 27.5037 13.2555V30.7153L35.6788 20.7299Z" fill="#3B5F9D"/>
<path d="M42.7446 16.9343L42.1022 16.0584C41.0511 14.8321 39.6497 13.8978 38.0146 13.2555C37.8978 13.2555 36.3212 13.4891 38.4234 16.1168C38.5402 16.2336 38.657 16.4088 38.7738 16.5256C39.9416 18.1606 40.1752 20.2044 39.5329 22.5402C38.9489 24.7591 37.6059 27.2117 35.6789 29.6643V29.781C34.4526 31.2993 33.0511 32.8759 31.5329 34.219C27.2701 37.9562 22.3066 40.6424 17.3431 41.927C16.584 42.1606 15.8832 42.3358 15.1825 42.4526C15.1825 42.4526 12.4964 42.6861 11.1533 42.6861C9.69346 42.6861 8.292 42.5694 7.00733 42.2774C6.94894 42.2774 6.94894 42.2774 6.89054 42.219H6.83215C5.54748 41.7518 4.55478 40.9927 3.79565 40C2.21901 37.8394 2.39419 34.8613 3.85405 31.5913C3.85405 31.5913 5.78105 26.6861 3.85405 28.2044C0.759156 32.7007 -0.642304 37.3139 0.292003 40.9927L0.583974 42.0438V42.1022L1.22631 43.3869C1.3431 43.5621 1.45989 43.7372 1.57667 43.854C4.61317 48.0584 11.3285 48.9927 18.803 46.8905C19.9708 46.5402 21.1387 46.2482 22.3066 45.7226C23.5329 45.1971 27.5037 43.2117 27.6789 43.1533C28.5548 42.6862 29.3723 42.1022 30.2482 41.5767C41.2847 34.1606 46.7154 23.2993 42.7446 16.9343Z" fill="#94191D"/>
<path d="M15.1825 27.9124V18.1606C15.1825 17.8686 14.9489 17.8102 14.6569 18.1022L7.59122 23.8248C7.29925 24.0584 7.06567 24.5255 7.06567 24.8175V35.2701L15.1825 27.9124Z" fill="#3B5F9D"/>
<path d="M7.00732 37.1387V41.5767C8.292 41.8686 9.69346 41.9854 11.1533 41.9854C12.4964 41.9854 13.8394 41.8686 15.1825 41.6351V29.8978L7.00732 37.1387Z" fill="#3B5F9D"/>
<path d="M17.3431 29.4307V33.7518V41.1679C20.1461 40.4672 22.8906 39.2993 25.5183 37.7226V32.9343L17.3431 29.4307Z" fill="#3A5F9B"/>
<path d="M25.5183 31.416V27.1533V12.9635V0.233566C25.5183 -0.0584049 25.2847 -0.116799 24.9927 0.175172L17.927 5.8978C17.6351 6.13138 17.4015 6.59853 17.4015 6.8905V19.6204V27.9708L25.5183 31.416Z" fill="#3A5F9B"/>
<path d="M56.292 38.8905C56.9927 38.8905 57.4599 38.6569 57.4599 38.3065C57.4599 37.9562 56.8759 37.6642 56.292 37.3722C55.6497 37.0803 55.0657 36.7299 55.0657 36.146C55.0657 35.3868 55.6497 34.9197 56.4672 34.9197C56.8759 34.9197 57.4599 35.0365 57.6935 35.0949C57.7519 35.0949 57.8102 35.1533 57.8102 35.2116C57.8102 35.27 57.8102 35.27 57.8102 35.3284L57.6935 35.6788C57.4599 35.562 56.9343 35.3868 56.6424 35.3868C56.1168 35.3868 55.7665 35.6204 55.7665 35.9708C55.7665 36.3211 56.1752 36.4963 56.6424 36.7299C57.3431 37.0803 58.1606 37.4306 58.1606 38.1898C58.1606 38.8905 57.5183 39.3576 56.4672 39.3576C56.0584 39.3576 55.4161 39.2408 55.1241 39.1825C55.0657 39.1825 55.0073 39.1241 55.0073 39.0657C55.0073 39.0073 55.0073 39.0073 55.0073 38.9489L55.1241 38.5985C55.3577 38.6569 56 38.8905 56.292 38.8905Z" fill="#3A5F9B"/>
<path d="M62.8322 38.8321C63.5329 38.8321 64.0001 38.1314 64.0001 37.1387C64.0001 36.0876 63.5329 35.4453 62.8322 35.4453C62.1315 35.4453 61.6643 36.146 61.6643 37.1387C61.6643 38.1314 62.1315 38.8321 62.8322 38.8321ZM62.8322 34.8613C63.9417 34.8613 64.6424 35.7372 64.6424 37.0803C64.6424 38.4234 63.9417 39.2993 62.8322 39.2993C61.7227 39.2993 61.022 38.4234 61.022 37.0803C61.022 35.7956 61.7811 34.8613 62.8322 34.8613Z" fill="#3A5F9B"/>
<path d="M67.854 35.3285C67.854 35.1533 67.854 34.9781 67.854 34.9197C67.854 34.9197 68.0292 34.8613 68.2044 34.8613C68.3796 34.8613 68.4963 34.9197 68.5547 34.9197C68.5547 34.9197 68.5547 35.1533 68.5547 35.3285V38.6569L68.2628 38.7737C68.2628 38.7737 68.4963 38.7737 68.6715 38.7737H70.3066C70.4817 38.7737 70.7153 38.7737 70.7153 38.7737C70.7153 38.7737 70.7737 38.8905 70.7737 39.0657C70.7737 39.3577 70.7153 39.3577 70.3066 39.3577H68.4963C68.3212 39.3577 67.9124 39.3577 67.9124 39.3577C67.9124 39.3577 67.9124 39.1241 67.9124 38.9489V35.3285H67.854Z" fill="#3A5F9B"/>
<path d="M75.1533 39.3577C73.9854 39.3577 73.635 38.9489 73.635 37.8394V35.3285C73.635 35.1533 73.635 34.9197 73.635 34.9197C73.635 34.9197 73.8102 34.8613 73.9854 34.8613C74.1606 34.8613 74.2773 34.9197 74.3357 34.9197C74.3357 34.9197 74.3357 35.1533 74.3357 35.3285V37.6059C74.3357 38.5986 74.4525 38.7737 75.2117 38.7737C75.9708 38.7737 76.0876 38.5986 76.0876 37.6059V35.3285C76.0876 35.1533 76.0876 34.9197 76.0876 34.9197C76.0876 34.9197 76.2627 34.8613 76.4379 34.8613C76.6131 34.8613 76.7299 34.9197 76.7883 34.9197C76.7883 34.9197 76.7883 35.1533 76.7883 35.3285V37.8394C76.6715 38.9489 76.3211 39.3577 75.1533 39.3577Z" fill="#3A5F9B"/>
<path d="M81.6935 34.8613C82.1606 34.8613 82.6278 34.9781 82.8614 35.0365C82.9198 35.0365 82.9782 35.0949 82.9782 35.1533C82.9782 35.2117 82.9782 35.2701 82.9782 35.2701L82.8614 35.6205C82.6278 35.5037 82.219 35.3869 81.9271 35.3869C81.1095 35.3869 80.5256 36.0876 80.5256 37.0803C80.5256 38.1314 81.1095 38.7737 81.9271 38.7737C82.219 38.7737 82.6278 38.5986 82.8614 38.5402L82.9782 38.8905C82.9782 38.9489 82.9782 39.0073 82.9782 39.0073C82.9782 39.0657 82.9782 39.1241 82.8614 39.1241C82.6862 39.1825 82.3358 39.2409 81.9855 39.2409L81.9271 39.5329L81.6935 39.5913C82.0438 39.6497 82.4526 39.708 82.4526 40.1752C82.4526 40.5256 82.219 40.7007 81.8687 40.7007C81.5767 40.7007 81.2263 40.6423 81.1679 40.6423L81.2847 40.292C81.4015 40.3504 81.6351 40.4088 81.8103 40.4088C81.9855 40.4088 82.1022 40.3504 82.1022 40.2336C82.1022 40.0584 81.8687 39.9416 81.4015 39.9416L81.5183 39.2993C80.4672 39.2409 79.7665 38.365 79.7665 37.0803C79.8249 35.7956 80.584 34.8613 81.6935 34.8613Z" fill="#3A5F9B"/>
<path d="M88.1752 34.4525C87.8249 34.4525 87.5329 34.219 87.2409 34.219C87.0658 34.219 86.949 34.2774 86.7738 34.3942C86.7738 34.3942 86.657 34.219 86.657 34.1022C86.657 33.8102 86.949 33.6934 87.2409 33.6934C87.5913 33.6934 87.8833 33.927 88.1752 33.927C88.3504 33.927 88.4672 33.8686 88.6424 33.7518C88.6424 33.7518 88.7592 33.927 88.7592 34.0438C88.7008 34.3358 88.4672 34.4525 88.1752 34.4525ZM87.6497 38.8321C88.3504 38.8321 88.8176 38.1314 88.8176 37.1387C88.8176 36.0876 88.3504 35.4452 87.6497 35.4452C86.949 35.4452 86.4818 36.146 86.4818 37.1387C86.4818 38.1314 86.949 38.8321 87.6497 38.8321ZM87.6497 34.8613C88.7592 34.8613 89.4599 35.7372 89.4599 37.0803C89.4599 38.4233 88.7592 39.2993 87.6497 39.2993C86.5402 39.2993 85.8395 38.4233 85.8395 37.0803C85.8395 35.7956 86.5986 34.8613 87.6497 34.8613Z" fill="#3A5F9B"/>
<path d="M92.6715 35.3284C92.6715 35.1533 92.6715 34.9197 92.6715 34.9197C92.6715 34.9197 93.1387 34.9197 93.2555 34.9197H94.9489C95.3576 34.9197 95.416 34.9197 95.416 35.2116C95.416 35.3868 95.3576 35.4452 95.3576 35.5036C95.3576 35.5036 95.0657 35.5036 94.9489 35.5036H93.6642C93.5474 35.5036 93.3722 35.5036 93.3138 35.5036V36.6131L93.0219 36.7299C93.0219 36.7299 93.2555 36.7299 93.4306 36.7299H94.2481C94.4233 36.7299 94.6569 36.7299 94.6569 36.7299C94.6569 36.7299 94.7153 36.9051 94.7153 37.0219C94.7153 37.1971 94.6569 37.2554 94.6569 37.3138C94.6569 37.3138 94.4233 37.3138 94.2481 37.3138H93.3138V38.8321C93.3722 38.8321 93.489 38.8321 93.6058 38.8321H95.0073C95.1825 38.8321 95.416 38.8321 95.416 38.8321C95.416 38.8321 95.4744 38.9489 95.4744 39.1241C95.4744 39.416 95.416 39.416 95.0073 39.416H93.2555C93.0803 39.416 92.6715 39.416 92.6715 39.416C92.6715 39.416 92.6715 39.1825 92.6715 39.0073V35.3284Z" fill="#3A5F9B"/>
<path d="M99.7957 38.8905C100.496 38.8905 100.964 38.6569 100.964 38.3065C100.964 37.9562 100.38 37.6642 99.7957 37.3722C99.1533 37.0803 98.5694 36.7299 98.5694 36.146C98.5694 35.3868 99.1533 34.9197 99.9708 34.9197C100.38 34.9197 100.964 35.0365 101.197 35.0949C101.256 35.0949 101.314 35.1533 101.314 35.2116C101.314 35.27 101.314 35.27 101.314 35.3284L101.197 35.6788C100.964 35.562 100.438 35.3868 100.146 35.3868C99.6205 35.3868 99.2701 35.6204 99.2701 35.9708C99.2701 36.3211 99.6789 36.4963 100.146 36.7299C100.847 37.0803 101.664 37.4306 101.664 38.1898C101.664 38.8905 101.022 39.3576 99.9708 39.3576C99.5621 39.3576 98.9197 39.2408 98.6278 39.1825C98.5694 39.1825 98.511 39.1241 98.511 39.0657C98.511 39.0073 98.511 39.0073 98.511 38.9489L98.6278 38.5985C98.8613 38.6569 99.4453 38.8905 99.7957 38.8905Z" fill="#3A5F9B"/>
<path d="M109.547 35.3284C109.547 35.1533 109.547 34.9197 109.547 34.9197C109.547 34.9197 110.015 34.9197 110.131 34.9197H111.825C112.234 34.9197 112.292 34.9197 112.292 35.2116C112.292 35.3868 112.234 35.4452 112.234 35.5036C112.234 35.5036 111.942 35.5036 111.825 35.5036H110.54C110.423 35.5036 110.248 35.5036 110.19 35.5036V36.6131L109.898 36.7299C109.898 36.7299 110.131 36.7299 110.307 36.7299H111.124C111.299 36.7299 111.533 36.7299 111.533 36.7299C111.533 36.7299 111.591 36.9051 111.591 37.0219C111.591 37.1971 111.533 37.2554 111.533 37.3138C111.533 37.3138 111.299 37.3138 111.124 37.3138H110.19V38.8321C110.248 38.8321 110.365 38.8321 110.482 38.8321H111.883C112.058 38.8321 112.292 38.8321 112.292 38.8321C112.292 38.8321 112.35 38.9489 112.35 39.1241C112.35 39.416 112.292 39.416 111.883 39.416H110.131C109.956 39.416 109.547 39.416 109.547 39.416C109.547 39.416 109.547 39.1825 109.547 39.0073V35.3284Z" fill="#3A5F9B"/>
<path d="M115.562 35.4452C115.562 35.27 115.562 34.9197 115.562 34.9197H116.438C117.022 34.9197 117.664 35.27 117.898 35.7956C118.19 35.27 118.774 34.9197 119.358 34.9197H120.234C120.234 34.9197 120.234 35.3284 120.234 35.4452V38.8321C120.234 39.0073 120.234 39.2408 120.234 39.2408C120.234 39.2408 120.058 39.2992 119.883 39.2992C119.708 39.2992 119.591 39.2408 119.533 39.2408C119.533 39.2408 119.533 39.0073 119.533 38.8321V35.3868H119.299C118.715 35.3868 118.073 35.9124 118.073 36.6131V38.8321C118.073 39.0073 118.073 39.2408 118.073 39.2408C118.073 39.2408 117.898 39.2992 117.723 39.2992C117.548 39.2992 117.431 39.2408 117.372 39.2408C117.372 39.2408 117.372 39.0073 117.372 38.8321V36.6131C117.372 35.9708 116.73 35.3868 116.146 35.3868H115.679L115.971 35.5036V38.8321C115.971 39.0073 115.971 39.2408 115.971 39.2408C115.971 39.2408 115.796 39.2992 115.621 39.2992C115.445 39.2992 115.329 39.2408 115.27 39.2408C115.27 39.2408 115.27 39.0073 115.27 38.8321V35.4452H115.562Z" fill="#3A5F9B"/>
<path d="M124.029 37.3722C124.263 37.4306 124.73 37.5474 125.022 37.5474C125.664 37.5474 126.131 37.1387 126.131 36.4963C126.131 35.854 125.664 35.4452 125.022 35.4452C124.788 35.4452 124.496 35.5036 124.263 35.5036V37.3722H124.029ZM123.679 35.3868C123.679 35.27 123.679 35.0365 123.679 34.9781H123.737C124.204 34.9781 124.905 34.9197 125.255 34.9197C126.19 34.9197 126.832 35.562 126.832 36.4963C126.832 37.4306 126.19 38.073 125.255 38.073C125.022 38.073 124.672 38.0146 124.38 38.0146V38.9489C124.38 39.1241 124.38 39.3576 124.38 39.3576C124.38 39.3576 124.204 39.416 124.029 39.416C123.854 39.416 123.737 39.3576 123.679 39.3576C123.679 39.3576 123.679 39.1241 123.679 38.9489V35.3868Z" fill="#3A5F9B"/>
<path d="M130.277 37.2554H131.153C131.912 37.2554 132.321 36.9635 132.321 36.3211C132.321 35.7956 131.854 35.3868 131.153 35.3868C130.978 35.3868 130.745 35.3868 130.569 35.4452V37.0803L130.277 37.2554ZM129.869 35.3868C129.869 35.27 129.869 35.0365 129.869 34.9781H129.927C130.394 34.9781 130.92 34.9197 131.27 34.9197C132.263 34.9197 132.905 35.5036 132.905 36.3211C132.905 37.0219 132.38 37.489 131.62 37.5474C131.737 37.5474 132.146 37.7226 132.321 38.0146L132.905 38.9489C132.964 39.0657 133.139 39.2408 133.197 39.2408C133.139 39.3576 132.964 39.3576 132.847 39.3576C132.613 39.3576 132.438 39.2992 132.321 39.1825L131.854 38.4233C131.504 37.8394 131.153 37.781 130.745 37.781H130.569V38.9489C130.569 39.1241 130.569 39.3576 130.569 39.3576C130.569 39.3576 130.394 39.416 130.219 39.416C130.044 39.416 129.927 39.3576 129.869 39.3576C129.869 39.3576 129.869 39.1241 129.869 38.9489V35.3868Z" fill="#3A5F9B"/>
<path d="M136.234 35.3284C136.234 35.1533 136.234 34.9197 136.234 34.9197C136.234 34.9197 136.701 34.9197 136.818 34.9197H138.511C138.92 34.9197 138.978 34.9197 138.978 35.2116C138.978 35.3868 138.92 35.4452 138.92 35.5036C138.92 35.5036 138.628 35.5036 138.511 35.5036H137.226C137.11 35.5036 136.934 35.5036 136.876 35.5036V36.6131L136.584 36.7299C136.584 36.7299 136.818 36.7299 136.993 36.7299H137.81C137.985 36.7299 138.219 36.7299 138.219 36.7299C138.219 36.7299 138.277 36.9051 138.277 37.0219C138.277 37.1971 138.219 37.2554 138.219 37.3138C138.219 37.3138 137.985 37.3138 137.81 37.3138H136.876V38.8321C136.934 38.8321 137.051 38.8321 137.168 38.8321H138.569C138.745 38.8321 138.978 38.8321 138.978 38.8321C138.978 38.8321 139.037 38.9489 139.037 39.1241C139.037 39.416 138.978 39.416 138.569 39.416H136.818C136.642 39.416 136.234 39.416 136.234 39.416C136.234 39.416 136.234 39.1825 136.234 39.0073V35.3284Z" fill="#3A5F9B"/>
<path d="M143.299 38.8905C144 38.8905 144.467 38.6569 144.467 38.3065C144.467 37.9562 143.883 37.6642 143.299 37.3722C142.657 37.0803 142.073 36.7299 142.073 36.146C142.073 35.3868 142.657 34.9197 143.475 34.9197C143.883 34.9197 144.467 35.0365 144.701 35.0949C144.759 35.0949 144.818 35.1533 144.818 35.2116C144.818 35.27 144.818 35.27 144.818 35.3284L144.701 35.6788C144.467 35.562 143.942 35.3868 143.65 35.3868C143.124 35.3868 142.774 35.6204 142.774 35.9708C142.774 36.3211 143.183 36.4963 143.65 36.7299C144.35 37.0803 145.168 37.4306 145.168 38.1898C145.168 38.8905 144.526 39.3576 143.475 39.3576C143.066 39.3576 142.423 39.2408 142.131 39.1825C142.073 39.1825 142.015 39.1241 142.015 39.0657C142.015 39.0073 142.015 39.0073 142.015 38.9489L142.131 38.5985C142.365 38.6569 143.007 38.8905 143.299 38.8905Z" fill="#3A5F9B"/>
<path d="M148.788 37.6059H149.256H150.657L150.423 36.6132C150.19 35.7956 150.19 35.4453 149.898 35.4453C149.606 35.4453 149.547 35.7956 149.372 36.6132L149.139 37.4891L148.788 37.6059ZM148.73 36.3796C148.964 35.5621 149.197 34.8613 149.839 34.8613C150.54 34.8613 150.774 35.5621 150.949 36.3796L151.591 38.8905C151.65 39.0073 151.708 39.2993 151.708 39.2993C151.708 39.2993 151.533 39.3577 151.358 39.3577C151.183 39.3577 151.066 39.2993 151.007 39.2993V39.2409C151.007 39.1825 151.007 39.0073 150.949 38.8905L150.774 38.1314H148.905L148.73 38.8905C148.672 39.0073 148.672 39.1825 148.672 39.2409V39.2993C148.672 39.2993 148.496 39.3577 148.321 39.3577C148.146 39.3577 148.029 39.2993 147.971 39.2993C147.971 39.2993 148.029 39.0657 148.088 38.8905L148.73 36.3796Z" fill="#3A5F9B"/>
<path d="M155.27 37.2554H156.146C156.905 37.2554 157.314 36.9635 157.314 36.3211C157.314 35.7956 156.847 35.3868 156.146 35.3868C155.971 35.3868 155.737 35.3868 155.562 35.4452V37.0803L155.27 37.2554ZM154.861 35.3868C154.861 35.27 154.861 35.0365 154.861 34.9781H154.92C155.387 34.9781 155.912 34.9197 156.263 34.9197C157.255 34.9197 157.898 35.5036 157.898 36.3211C157.898 37.0219 157.372 37.489 156.613 37.5474C156.73 37.5474 157.139 37.7226 157.314 38.0146L157.898 38.9489C157.956 39.0657 158.131 39.2408 158.19 39.2408C158.131 39.3576 157.956 39.3576 157.839 39.3576C157.606 39.3576 157.372 39.2992 157.314 39.1825L156.847 38.4233C156.496 37.8394 156.146 37.781 155.737 37.781H155.562V38.9489C155.562 39.1241 155.562 39.3576 155.562 39.3576C155.562 39.3576 155.387 39.416 155.212 39.416C155.036 39.416 154.92 39.3576 154.861 39.3576C154.861 39.3576 154.861 39.1241 154.861 38.9489V35.3868Z" fill="#3A5F9B"/>
<path d="M161.168 35.3285C161.168 35.1533 161.168 34.9781 161.168 34.9197C161.168 34.9197 161.343 34.8613 161.518 34.8613C161.694 34.8613 161.81 34.9197 161.869 34.9197C161.869 34.9197 161.869 35.1533 161.869 35.3285V38.8905C161.869 39.0657 161.869 39.2993 161.869 39.2993C161.869 39.2993 161.694 39.3577 161.518 39.3577C161.343 39.3577 161.226 39.2993 161.168 39.2993C161.168 39.2993 161.168 39.0657 161.168 38.8905V35.3285Z" fill="#3A5F9B"/>
<path d="M165.723 37.6059H166.19H167.591L167.358 36.6132C167.124 35.7956 167.124 35.4453 166.832 35.4453C166.54 35.4453 166.482 35.7956 166.307 36.6132L166.073 37.4891L165.723 37.6059ZM165.664 36.3796C165.898 35.5621 166.131 34.8613 166.774 34.8613C167.475 34.8613 167.708 35.5621 167.883 36.3796L168.526 38.8905C168.584 39.0073 168.642 39.2993 168.642 39.2993C168.642 39.2993 168.467 39.3577 168.292 39.3577C168.117 39.3577 168 39.2993 167.942 39.2993V39.2409C167.942 39.1825 167.942 39.0073 167.883 38.8905L167.708 38.1314H165.781L165.606 38.8905C165.548 39.0073 165.548 39.1825 165.548 39.2409V39.2993C165.548 39.2993 165.372 39.3577 165.197 39.3577C165.022 39.3577 164.905 39.2993 164.847 39.2993C164.847 39.2993 164.905 39.0657 164.964 38.8905L165.664 36.3796Z" fill="#3A5F9B"/>
<path d="M171.854 35.3285C171.854 35.1533 171.854 34.9781 171.854 34.9197C171.854 34.9197 172.029 34.8613 172.204 34.8613C172.38 34.8613 172.496 34.9197 172.555 34.9197C172.555 34.9197 172.555 35.1533 172.555 35.3285V38.8905C172.555 39.0657 172.555 39.2993 172.555 39.2993C172.555 39.2993 172.38 39.3577 172.204 39.3577C172.029 39.3577 171.912 39.2993 171.854 39.2993C171.854 39.2993 171.854 39.0657 171.854 38.8905V35.3285Z" fill="#3A5F9B"/>
<path d="M176.934 38.8905C177.635 38.8905 178.102 38.6569 178.102 38.3065C178.102 37.9562 177.518 37.6642 176.934 37.3722C176.292 37.0803 175.708 36.7299 175.708 36.146C175.708 35.3868 176.292 34.9197 177.11 34.9197C177.518 34.9197 178.102 35.0365 178.336 35.0949C178.394 35.0949 178.453 35.1533 178.453 35.2116C178.453 35.27 178.453 35.27 178.453 35.3284L178.336 35.6788C178.102 35.562 177.577 35.3868 177.285 35.3868C176.759 35.3868 176.409 35.6204 176.409 35.9708C176.409 36.3211 176.818 36.4963 177.285 36.7299C177.985 37.0803 178.803 37.4306 178.803 38.1898C178.803 38.8905 178.161 39.3576 177.11 39.3576C176.701 39.3576 176.058 39.2408 175.766 39.1825C175.708 39.1825 175.65 39.1241 175.65 39.0657C175.65 39.0073 175.65 39.0073 175.65 38.9489L175.766 38.5985C176 38.6569 176.642 38.8905 176.934 38.8905Z" fill="#3A5F9B"/>
<path d="M55.2409 21.8394C55.2409 25.5182 56.8176 27.3869 61.0219 27.3869C62.7154 27.3869 64.292 27.0949 65.7519 26.5693C66.511 26.2774 66.7446 26.4526 66.7446 27.2701V27.6204C66.7446 28.2628 66.5694 28.5547 65.7519 28.9051C64.5256 29.4307 62.949 29.6642 61.1387 29.6642C55.4161 29.6642 52.73 27.2117 52.73 21.8394V16.8175C52.73 11.3869 55.4161 8.64233 61.0803 8.64233C62.7154 8.64233 64.2336 8.93431 65.6351 9.45985C66.3942 9.75182 66.5694 10.0438 66.5694 10.6277V11.0949C66.5694 11.854 66.219 12.0876 65.5767 11.7956C64.1752 11.2117 62.657 10.9197 61.0219 10.9197C57.0511 10.9197 55.3577 12.7883 55.3577 16.8175V21.8394H55.2409Z" fill="#94191D"/>
<path d="M81.4015 20.146C81.4015 17.1095 80.292 15.7664 76.73 15.7664C73.1095 15.7664 72 17.1095 72 20.146V23.0657C72 26.1022 73.1679 27.4452 76.73 27.4452C80.292 27.4452 81.4015 26.1022 81.4015 23.0657V20.146ZM69.5475 23.0657V20.146C69.5475 15.7664 71.9416 13.5474 76.73 13.5474C81.8103 13.5474 83.8541 15.8248 83.8541 20.146V23.0657C83.8541 27.4452 81.4599 29.6642 76.73 29.6642C71.6497 29.7226 69.5475 27.3868 69.5475 23.0657Z" fill="#94191D"/>
<path d="M89.8687 28.3795C89.8687 29.2555 89.6935 29.3722 88.8176 29.3722H88.4672C87.6497 29.3722 87.4161 29.1971 87.4161 28.3795V19.4452C87.4161 15.5328 89.6935 13.5474 94.2483 13.5474C99.0366 13.5474 101.022 15.6496 101.022 19.4452V28.3795C101.022 29.2555 100.847 29.3722 99.9709 29.3722H99.5621C98.6862 29.3722 98.511 29.1971 98.511 28.3795V19.4452C98.511 16.9343 97.5183 15.7664 94.1899 15.7664C90.8614 15.7664 89.8103 16.9343 89.8103 19.4452V28.3795H89.8687Z" fill="#94191D"/>
<path d="M104.467 27.6788C104.467 26.9197 104.701 26.6861 105.518 26.8613C107.037 27.2701 108.672 27.5036 110.307 27.5036C112.818 27.5036 113.869 27.0365 113.869 25.6934C113.869 24.7007 113.285 24.1752 111.766 23.416L107.796 21.6058C105.693 20.6131 104.759 19.6788 104.759 17.5182C104.759 14.7737 106.569 13.5474 110.54 13.5474C112.058 13.5474 113.401 13.7226 114.628 14.1314C115.387 14.3649 115.62 14.5985 115.62 15.2992V15.5912C115.62 16.3503 115.328 16.5839 114.569 16.3503C113.285 15.9416 111.942 15.7664 110.482 15.7664C108.088 15.7664 107.153 16.2919 107.153 17.5182C107.153 18.3941 107.737 19.0949 108.905 19.6204L113.051 21.4306C115.27 22.4233 116.321 23.416 116.321 25.635C116.321 28.4379 114.336 29.7226 110.131 29.7226C108.613 29.7226 107.037 29.5474 105.518 29.1387C104.701 28.9051 104.467 28.6131 104.467 27.9708V27.6788Z" fill="#94191D"/>
<path d="M122.102 23.8248C122.102 26.3358 123.153 27.5037 126.482 27.5037C129.81 27.5037 130.803 26.3942 130.803 23.8248V14.8905C130.803 14.1314 131.037 13.8978 131.854 13.8978H132.204C133.08 13.8978 133.255 14.1314 133.255 14.8905V23.8248C133.255 27.6205 131.27 29.7226 126.482 29.7226C121.927 29.7226 119.65 27.7956 119.65 23.8248V14.8905C119.65 14.1314 119.883 13.8978 120.701 13.8978H121.051C121.927 13.8978 122.102 14.1314 122.102 14.8905V23.8248Z" fill="#94191D"/>
<path d="M137.051 8.35037C137.051 7.47445 137.226 7.35767 138.102 7.35767H138.453C139.27 7.35767 139.504 7.53285 139.504 8.35037V24.9343C139.504 26.511 140.088 27.3285 141.197 27.3285H141.372C142.19 27.3285 142.365 27.3869 142.365 28.146V28.3796C142.365 29.1387 142.19 29.4307 141.431 29.5474C141.256 29.6058 141.08 29.6058 140.847 29.6058C138.569 29.6058 137.051 28.3212 137.051 25.4015V8.35037Z" fill="#94191D"/>
<path d="M143.241 15.124C143.241 14.4233 143.416 14.2481 144.117 14.1313L145.985 13.8978L146.336 10.6861C146.394 10.0438 146.569 9.81018 147.329 9.81018H147.562C148.263 9.81018 148.438 9.98536 148.438 10.6861V13.8978H153.752C154.569 13.8978 154.745 14.073 154.745 14.8905V15.1824C154.745 15.9416 154.569 16.1751 153.752 16.1751H148.438V24.1751C148.438 26.5693 149.489 27.5036 151.475 27.5036C152.642 27.5036 153.577 27.3868 154.394 27.2116C155.153 27.0365 155.387 27.27 155.387 28.0292V28.3211C155.387 28.9635 155.212 29.2554 154.394 29.4306C153.518 29.6642 152.584 29.7226 151.533 29.7226C147.854 29.7226 146.044 27.854 146.044 24.1751V16.1168H144.175C143.416 16.1168 143.299 16 143.299 15.2408V15.124H143.241Z" fill="#94191D"/>
<path d="M167.65 22.2482H163.796C160.876 22.2482 159.533 23.0073 159.533 24.9927C159.533 26.8029 160.759 27.6788 163.212 27.6788C166.248 27.6788 167.65 27.0365 167.65 24.6423V22.2482ZM170.102 24.7007C170.102 28.2044 168 29.6642 163.27 29.6642C159.533 29.6642 157.139 28.2044 157.139 24.9343C157.139 21.6642 159.358 20.3212 163.796 20.3212H167.65V18.4526C167.65 16.292 166.131 15.5912 163.387 15.5912C161.927 15.5912 160.759 15.708 159.766 15.9416C159.007 16.1168 158.715 15.8832 158.715 15.1825V14.9489C158.715 14.2482 158.89 14.0146 159.708 13.8978C160.759 13.6642 161.985 13.6058 163.212 13.6058C167.766 13.6058 170.102 15.2409 170.102 18.5693V24.7007Z" fill="#94191D"/>
<path d="M176.058 28.3795C176.058 29.2555 175.883 29.3722 175.007 29.3722H174.657C173.839 29.3722 173.606 29.1971 173.606 28.3795V18.9781C173.606 15.3576 175.474 13.5474 179.212 13.5474C179.62 13.5474 179.971 13.6058 180.263 13.6058C181.08 13.7226 181.255 13.8978 181.255 14.7153V15.0073C181.255 15.7664 181.08 15.9416 180.263 15.8248C179.854 15.7664 179.562 15.7664 179.27 15.7664C176.934 15.7664 176.117 16.8175 176.117 19.0949V28.3795H176.058Z" fill="#94191D"/>
</svg>
