<svg width="46" height="48" viewBox="0 0 46 48" fill="none" xmlns="http://www.w3.org/2000/svg">
<path d="M28.4814 32.9583V36.5212C29.708 35.6451 30.9345 34.769 32.1027 33.7176C33.8549 32.199 35.3735 30.3884 36.7169 28.6362V23.0291L28.4814 32.9583Z" fill="#3A5F9B"/>
<path d="M36.6585 20.7513V6.6168C36.6585 6.32476 36.4248 6.26636 36.1328 6.55839L29.0071 12.2823C28.7151 12.5159 28.4814 12.9832 28.4814 13.2752V30.739L36.6585 20.7513Z" fill="#3A5F9B"/>
<path d="M43.7256 16.9549L43.0832 16.0788C42.0318 14.8522 40.6301 13.9177 38.9947 13.2752C38.8778 13.2752 37.3008 13.5088 39.4035 16.1372C39.5203 16.254 39.6371 16.4292 39.754 16.546C40.9221 18.1814 41.1557 20.2257 40.5132 22.5619C39.9292 24.7814 38.5858 27.2345 36.6584 29.6876V29.8044C35.4318 31.323 34.03 32.9 32.5115 34.2434C28.2477 37.9814 23.2831 40.6682 18.3185 41.9531C17.5592 42.1868 16.8583 42.362 16.1575 42.4788C16.1575 42.4788 13.4707 42.7124 12.1274 42.7124C10.6672 42.7124 9.26541 42.5956 7.98045 42.3036C7.92204 42.3036 7.92204 42.3036 7.86364 42.2452H7.80523C6.52027 41.7779 5.52735 41.0186 4.76805 40.0257C3.19106 37.8646 3.36628 34.8859 4.82646 31.6151C4.82646 31.6151 6.7539 26.7089 4.82646 28.2274C1.73088 32.7248 0.329109 37.339 1.26362 41.0186L1.55566 42.0699V42.1284L2.19814 43.4133C2.31495 43.5885 2.43177 43.7638 2.54858 43.8806C5.58575 48.0859 12.3026 49.0204 19.7787 46.9177C20.9468 46.5673 22.115 46.2753 23.2831 45.7496C24.5097 45.2239 28.4814 43.2381 28.6566 43.1797C29.5327 42.7124 30.3504 42.1283 31.2265 41.6027C42.2655 34.185 47.6973 23.3212 43.7256 16.9549Z" fill="#94191D"/>
<path d="M16.1574 27.9354V18.1814C16.1574 17.8894 15.9238 17.831 15.6318 18.123L8.56448 23.8469C8.27245 24.0806 8.03882 24.5478 8.03882 24.8399V35.2947L16.1574 27.9354Z" fill="#3A5F9B"/>
<path d="M7.98047 37.1638V41.6027C9.26543 41.8947 10.6672 42.0116 12.1274 42.0116C13.4707 42.0116 14.8141 41.8947 16.1575 41.6611V29.9213L7.98047 37.1638Z" fill="#3A5F9B"/>
<path d="M18.3185 29.4539V33.776V41.1938C21.122 40.4929 23.8672 39.3247 26.4955 37.7477V32.9583L18.3185 29.4539Z" fill="#2A457A"/>
<path d="M26.4956 31.4398V27.1761V12.9832V0.250406C26.4956 -0.0416295 26.2619 -0.100037 25.9699 0.191999L18.9026 5.9159C18.6106 6.14953 18.377 6.61679 18.377 6.90882V19.6416V27.9938L26.4956 31.4398Z" fill="#2A457A"/>
</svg>
