<?xml version="1.0" encoding="UTF-8" standalone="no"?>
<!-- Created with Inkscape (http://www.inkscape.org/) -->

<svg
   version="1.1"
   id="svg1"
   width="529.1333"
   height="145.60001"
   viewBox="0 0 529.1333 145.60001"
   sodipodi:docname="logo_horizontal 1.eps"
   xmlns:inkscape="http://www.inkscape.org/namespaces/inkscape"
   xmlns:sodipodi="http://sodipodi.sourceforge.net/DTD/sodipodi-0.dtd"
   xmlns="http://www.w3.org/2000/svg"
   xmlns:svg="http://www.w3.org/2000/svg">
  <defs
     id="defs1" />
  <sodipodi:namedview
     id="namedview1"
     pagecolor="#ffffff"
     bordercolor="#000000"
     borderopacity="0.25"
     inkscape:showpageshadow="2"
     inkscape:pageopacity="0.0"
     inkscape:pagecheckerboard="0"
     inkscape:deskcolor="#d1d1d1">
    <inkscape:page
       x="0"
       y="0"
       inkscape:label="1"
       id="page1"
       width="529.1333"
       height="145.60001"
       margin="0"
       bleed="0" />
  </sodipodi:namedview>
  <g
     id="g1"
     inkscape:groupmode="layer"
     inkscape:label="1">
    <g
       id="group-R5">
      <path
         id="path2"
         d="m 601.57,342.266 v -80.993 c 27.231,19.29 53.625,40.508 78.86,63.54 37.75,34.449 71.386,75.664 100.515,115.046 V 567.777 L 601.57,342.266"
         style="fill:#3f60a4;fill-opacity:1;fill-rule:nonzero;stroke:none"
         transform="matrix(0.13333333,0,0,-0.13333333,0,145.6)" />
      <path
         id="path3"
         d="m 780.945,619.926 v 321.863 c 0,6.652 -5.394,7.52 -12.043,1.938 L 613.613,813.426 C 606.965,807.844 601.57,797.93 601.57,791.277 V 394.418 l 179.375,225.508"
         style="fill:#3f60a4;fill-opacity:1;fill-rule:nonzero;stroke:none"
         transform="matrix(0.13333333,0,0,-0.13333333,0,145.6)" />
      <path
         id="path4"
         d="m 935.949,706.422 -14.215,20.402 c -22.754,28.367 -53.308,49.348 -89.593,63.235 -2.977,-0.364 -37.274,-5.887 8.601,-65.719 0.024,-0.027 0.035,-0.051 0.059,-0.074 2.633,-3.098 5.129,-6.317 7.472,-9.676 25.536,-36.617 30.168,-84.332 17.145,-137.129 v 0 0 C 852.828,526.426 823.742,470.645 780.945,415.516 v -0.985 C 754.168,380.297 724.023,343.855 690.758,313.496 597.691,228.563 489.141,167.367 379.844,138.758 v -0.113 c -16.008,-4.872 -31.762,-8.993 -47.176,-12.321 0,0 -59.066,-5.726 -88.152,-5.726 -31.661,0 -62.176,3.175 -91.223,9.238 v -0.422 c -0.734,0.27 -1.426,0.59 -2.156,0.863 -0.617,0.133 -1.246,0.246 -1.86,0.383 v 0.363 c -27.699,10.817 -50.3161,27.364 -66.1129,50.024 -34,48.75 -30.9414,117.176 1.539,191.082 l -0.0039,0.008 c 0,0 41.9528,111.961 0.0664,76.847 C 16.2031,347.609 -13.668,243.625 5.89063,159.988 l 7.42967,-24.554 c 0.125,-0.336 0.2774,-0.657 0.4024,-0.993 0.039,-0.027 0.0781,-0.054 0.1132,-0.086 l 14.211,-29.679 c 2.25,-3.785 4.6054,-7.5197 7.1445,-11.1565 C 101.586,-1.69141 248.297,-23 411.777,24.1094 l 0.094,0.0117 c 0,0 0.219,0.0781 0.293,0.0977 25.156,8.0195 51.574,15.2031 77.055,26.8515 26.937,12.3203 113.605,56.8637 117.386,58.8557 19.442,10.23 37.625,23.351 56.196,36.301 240.941,168.015 360.289,415.425 273.148,560.195"
         style="fill:#8e1825;fill-opacity:1;fill-rule:nonzero;stroke:none"
         transform="matrix(0.13333333,0,0,-0.13333333,0,145.6)" />
      <path
         id="path5"
         d="m 332.668,457.23 v 222.071 c 0,6.652 -5.395,7.519 -12.047,1.937 l -155.285,-130.3 c -6.652,-5.583 -12.043,-15.5 -12.043,-22.149 V 291.023 L 332.668,457.23"
         style="fill:#3f60a4;fill-opacity:1;fill-rule:nonzero;stroke:none"
         transform="matrix(0.13333333,0,0,-0.13333333,0,145.6)" />
      <path
         id="path6"
         d="M 153.293,246.68 V 145.195 c 28.758,-6.113 59.223,-9.277 91.223,-9.277 29.074,0 58.558,2.781 88.152,8.086 V 412.137 L 153.293,246.68"
         style="fill:#3f60a4;fill-opacity:1;fill-rule:nonzero;stroke:none"
         transform="matrix(0.13333333,0,0,-0.13333333,0,145.6)" />
      <path
         id="path7"
         d="m 379.844,421.926 v -267.34 c 60.933,16.383 121.609,43.156 179.371,78.695 v 108.434 l -179.371,80.211"
         style="fill:#2c4882;fill-opacity:1;fill-rule:nonzero;stroke:none"
         transform="matrix(0.13333333,0,0,-0.13333333,0,145.6)" />
      <path
         id="path8"
         d="m 559.215,376.738 v 709.652 c 0,6.66 -5.391,7.52 -12.043,1.94 L 391.887,958.031 c -6.653,-5.582 -12.043,-15.5 -12.043,-22.148 V 646.672 456.969 l 179.371,-80.231"
         style="fill:#2c4882;fill-opacity:1;fill-rule:nonzero;stroke:none"
         transform="matrix(0.13333333,0,0,-0.13333333,0,145.6)" />
      <path
         id="path9"
         d="m 1232.98,207.688 c 15.18,0 25.29,5.457 25.29,13.636 0,8.43 -12.88,14.481 -25.98,21.383 -13.54,7.137 -27.31,15.18 -27.31,27.691 0,16.762 12.18,27.942 30.44,27.942 9.4,0 21.34,-2.488 26.67,-3.895 1.45,-0.382 1.92,-1.468 1.92,-2.765 0,-0.856 -0.2,-1.809 -0.47,-2.707 l -2.53,-8.125 c -5.28,2.129 -16.17,6.183 -22.76,6.183 -11.47,0 -19.13,-5.328 -19.13,-13.304 0,-7.399 9.03,-12.512 19.66,-17.938 15.18,-7.758 33.63,-16.156 33.63,-32.801 0,-15.66 -14.64,-26.109 -36.6,-26.109 -9.49,0 -23.29,2.48 -29.36,3.926 -1.46,0.383 -2.06,1.433 -2.06,2.73 0,0.856 0.2,1.82 0.48,2.719 l 2.53,8.113 c 5.27,-2.129 19,-6.679 25.58,-6.679"
         style="fill:#2c4882;fill-opacity:1;fill-rule:nonzero;stroke:none"
         transform="matrix(0.13333333,0,0,-0.13333333,0,145.6)" />
      <path
         id="path10"
         d="m 1376.3,208.52 c 15.48,0 25.79,15.636 25.79,39.089 0,23.45 -10.31,39.086 -25.79,39.086 -15.46,0 -25.77,-15.636 -25.77,-39.086 0,-23.453 10.31,-39.089 25.77,-39.089 z m 0,89.82 c 23.96,0 39.93,-20.289 39.93,-50.731 0,-30.433 -15.97,-50.73 -39.93,-50.73 -23.94,0 -39.91,20.297 -39.91,50.73 0,30.442 15.97,50.731 39.91,50.731"
         style="fill:#2c4882;fill-opacity:1;fill-rule:nonzero;stroke:none"
         transform="matrix(0.13333333,0,0,-0.13333333,0,145.6)" />
      <path
         id="path11"
         d="m 1485.92,287.863 c 0,3.321 -0.33,8.485 -0.5,8.981 0.5,0.164 3.99,0.996 7.32,0.996 3.33,0 6.82,-0.832 7.32,-0.996 -0.17,-0.496 -0.5,-5.653 -0.5,-8.981 v -75.347 l -6.26,-2.364 0.27,-0.297 c 0,0 5.16,0.329 8.49,0.329 h 35.92 c 3.33,0 8.65,0.336 9.15,0.496 0.17,-0.496 0.83,-2.821 0.83,-6.149 0,-6.82 -1.16,-6.82 -9.98,-6.82 h -39.59 c -3.32,0 -12.47,-0.332 -12.97,-0.496 0.17,0.496 0.5,5.824 0.5,9.144 v 81.504"
         style="fill:#2c4882;fill-opacity:1;fill-rule:nonzero;stroke:none"
         transform="matrix(0.13333333,0,0,-0.13333333,0,145.6)" />
      <path
         id="path12"
         d="m 1645.78,196.879 c -25.24,0 -33.44,9.48 -33.44,34.098 v 56.886 c 0,3.328 -0.33,8.649 -0.5,9.145 0.5,0.172 3.99,0.832 7.32,0.832 3.33,0 6.82,-0.66 7.32,-0.832 -0.17,-0.496 -0.5,-5.817 -0.5,-9.145 v -52.23 c 0,-23.09 2.58,-27.113 19.8,-27.113 17.21,0 19.79,4.031 19.79,27.113 v 52.23 c 0,3.328 -0.34,8.649 -0.5,9.145 0.5,0.172 3.99,0.832 7.31,0.832 3.33,0 6.82,-0.66 7.32,-0.832 -0.16,-0.496 -0.5,-5.817 -0.5,-9.145 v -56.886 c 0,-24.645 -8.21,-34.098 -33.42,-34.098"
         style="fill:#2c4882;fill-opacity:1;fill-rule:nonzero;stroke:none"
         transform="matrix(0.13333333,0,0,-0.13333333,0,145.6)" />
      <path
         id="path13"
         d="m 1788.81,298.34 c 10.48,0 20.45,-2.106 25.26,-3.477 1.49,-0.39 1.95,-1.379 1.95,-2.57 0,-0.938 -0.29,-1.996 -0.58,-2.992 l -2.7,-8.117 c -5.27,2.129 -14.01,5.511 -20.6,5.511 -18.46,0 -30.77,-15.636 -30.77,-39.086 0,-23.461 12.31,-39.105 30.77,-39.105 6.59,0 15.33,3.383 20.6,5.512 l 2.7,-8.114 c 0.29,-0.996 0.58,-2.058 0.58,-2.996 0,-1.191 -0.46,-2.176 -1.95,-2.566 -3.94,-1.129 -11.33,-2.735 -19.61,-3.289 l -1.19,-5.996 -4.87,-1.492 c 7.6,-1.153 17.06,-3.09 17.06,-13.305 0,-7.758 -5.11,-11.813 -12.77,-11.813 -5.96,0 -13.53,1.485 -14.76,1.985 l 2.41,8.207 c 2.7,-1.086 7.7,-2.996 11.07,-2.996 3.89,0 5.98,1.175 5.98,3.363 0,4.633 -5.72,6.207 -15.28,7.137 l 3.04,14.871 c -22.9,1.898 -37.92,21.664 -37.92,50.597 0,30.442 16.64,50.731 41.58,50.731"
         style="fill:#2c4882;fill-opacity:1;fill-rule:nonzero;stroke:none"
         transform="matrix(0.13333333,0,0,-0.13333333,0,145.6)" />
      <path
         id="path14"
         d="m 1930.2,307.824 c -8.08,0 -14.28,4.684 -20.45,4.684 -3.65,0 -5.96,-1.77 -10.65,-4.356 -0.34,0.504 -3,3.661 -3,7.153 0,6.484 6.32,9.812 12.48,9.812 8.18,0 14.37,-4.664 20.5,-4.664 3.63,0 5.93,1.762 10.6,4.328 0.33,-0.496 2.99,-3.652 2.99,-7.144 0,-6.492 -6.32,-9.813 -12.47,-9.813 z m -10.82,-99.304 c 15.48,0 25.79,15.636 25.79,39.089 0,23.45 -10.31,39.086 -25.79,39.086 -15.46,0 -25.77,-15.636 -25.77,-39.086 0,-23.453 10.31,-39.089 25.77,-39.089 z m 0,89.82 c 23.96,0 39.92,-20.289 39.92,-50.731 0,-30.433 -15.96,-50.73 -39.92,-50.73 -23.95,0 -39.91,20.297 -39.91,50.73 0,30.442 15.96,50.731 39.91,50.731"
         style="fill:#2c4882;fill-opacity:1;fill-rule:nonzero;stroke:none"
         transform="matrix(0.13333333,0,0,-0.13333333,0,145.6)" />
      <path
         id="path15"
         d="m 2029.16,288.695 c 0,3.321 -0.5,9.317 -0.5,9.317 0.5,-0.172 9.82,-0.504 13.15,-0.504 h 37.58 c 8.82,0 9.99,0 9.99,-6.82 0,-3.321 -0.67,-5.657 -0.83,-6.153 -0.5,0.164 -5.83,0.496 -9.16,0.496 h -28.6 c -2.7,0 -6.61,0.223 -7.99,0.305 v -25.582 l -6.2,-2.258 c 0.08,-0.082 0.15,-0.156 0.21,-0.238 0,0 5.17,0.336 8.49,0.336 h 17.46 c 3.33,0 8.49,0.324 8.98,0.496 0.17,-0.496 1.01,-3.824 1.01,-7.152 0,-3.329 -0.84,-5.825 -1.01,-6.325 -0.49,0.172 -5.65,0.5 -8.98,0.5 h -19.96 v -35.191 c 1.44,0.098 4.17,0.262 6.49,0.262 h 30.1 c 3.33,0 8.66,0.336 9.16,0.496 0.16,-0.496 0.83,-2.821 0.83,-6.149 0,-6.82 -1.17,-6.82 -9.99,-6.82 h -37.75 c -3.33,0 -12.48,-0.332 -12.98,-0.496 0.18,0.496 0.5,5.824 0.5,9.144 v 82.336"
         style="fill:#2c4882;fill-opacity:1;fill-rule:nonzero;stroke:none"
         transform="matrix(0.13333333,0,0,-0.13333333,0,145.6)" />
      <path
         id="path16"
         d="m 2184.42,207.688 c 15.16,0 25.28,5.457 25.28,13.636 0,8.43 -12.88,14.481 -25.98,21.383 -13.54,7.137 -27.31,15.18 -27.31,27.691 0,16.762 12.17,27.942 30.44,27.942 9.4,0 21.34,-2.488 26.66,-3.895 1.46,-0.382 1.93,-1.468 1.93,-2.765 0,-0.856 -0.21,-1.809 -0.47,-2.707 l -2.53,-8.125 c -5.27,2.129 -16.17,6.183 -22.76,6.183 -11.48,0 -19.13,-5.328 -19.13,-13.304 0,-7.399 9.03,-12.512 19.66,-17.938 15.18,-7.758 33.62,-16.156 33.62,-32.801 0,-15.66 -14.63,-26.109 -36.59,-26.109 -9.5,0 -23.3,2.48 -29.37,3.926 -1.45,0.383 -2.05,1.433 -2.05,2.73 0,0.856 0.19,1.82 0.47,2.719 l 2.54,8.113 c 5.27,-2.129 19,-6.679 25.59,-6.679"
         style="fill:#2c4882;fill-opacity:1;fill-rule:nonzero;stroke:none"
         transform="matrix(0.13333333,0,0,-0.13333333,0,145.6)" />
      <path
         id="path17"
         d="m 2398.42,288.695 c 0,3.321 -0.5,9.317 -0.5,9.317 0.5,-0.172 9.82,-0.504 13.14,-0.504 h 37.59 c 8.82,0 9.99,0 9.99,-6.82 0,-3.321 -0.67,-5.657 -0.84,-6.153 -0.49,0.164 -5.82,0.496 -9.15,0.496 h -28.61 c -2.7,0 -6.6,0.223 -7.98,0.305 v -25.582 l -6.2,-2.258 c 0.07,-0.082 0.15,-0.156 0.21,-0.238 0,0 5.17,0.336 8.49,0.336 h 17.46 c 3.33,0 8.48,0.324 8.98,0.496 0.17,-0.496 1,-3.824 1,-7.152 0,-3.329 -0.83,-5.825 -1,-6.325 -0.5,0.172 -5.65,0.5 -8.98,0.5 h -19.96 v -35.191 c 1.43,0.098 4.17,0.262 6.49,0.262 h 30.1 c 3.33,0 8.66,0.336 9.15,0.496 0.17,-0.496 0.84,-2.821 0.84,-6.149 0,-6.82 -1.17,-6.82 -9.99,-6.82 h -37.75 c -3.33,0 -12.48,-0.332 -12.98,-0.496 0.17,0.496 0.5,5.824 0.5,9.144 v 82.336"
         style="fill:#2c4882;fill-opacity:1;fill-rule:nonzero;stroke:none"
         transform="matrix(0.13333333,0,0,-0.13333333,0,145.6)" />
      <path
         id="path18"
         d="m 2529.66,285.031 c 0,3.328 -0.5,12.477 -0.5,12.477 h 19.79 c 13.36,0 26.6,-8.199 32.44,-20.043 5.84,11.844 19.07,20.043 32.44,20.043 h 19.79 c 0,0 -0.5,-9.149 -0.5,-12.477 v -77.672 c 0,-3.328 0.33,-8.652 0.5,-9.148 -0.5,-0.164 -3.99,-0.832 -7.32,-0.832 -3.33,0 -6.82,0.668 -7.32,0.832 0.16,0.496 0.5,5.82 0.5,9.148 v 78.008 h -4.82 c -12.77,0 -26.45,-12.48 -26.45,-27.449 v -50.559 c 0,-3.328 0.33,-8.652 0.5,-9.148 -0.5,-0.164 -4,-0.832 -7.32,-0.832 -3.32,0 -6.82,0.668 -7.32,0.832 0.17,0.496 0.5,5.82 0.5,9.148 v 50.559 c 0,14.969 -13.68,27.449 -26.45,27.449 h -10.81 l 5.99,-2.75 v -75.258 c 0,-3.328 0.33,-8.652 0.5,-9.148 -0.5,-0.164 -3.99,-0.832 -7.32,-0.832 -3.33,0 -6.82,0.668 -7.32,0.832 0.17,0.496 0.5,5.82 0.5,9.148 v 77.672"
         style="fill:#2c4882;fill-opacity:1;fill-rule:nonzero;stroke:none"
         transform="matrix(0.13333333,0,0,-0.13333333,0,145.6)" />
      <path
         id="path19"
         d="m 2715.69,241.465 c 5.34,-1.981 15.48,-3.336 22.06,-3.336 14.47,0 24.11,9.652 24.11,24.121 0,14.473 -9.64,24.113 -24.11,24.113 -4.69,0 -11.19,-0.683 -16.47,-1.804 v -42.27 z m -8.05,46.062 c 0,3.192 -0.23,7.383 -0.5,8.985 l 1.11,0.008 c 10.44,0.097 25.14,1.492 32.83,1.492 20.95,0 34.93,-14.309 34.93,-35.762 0,-21.461 -13.98,-35.762 -34.93,-35.762 -4.88,0 -12.34,0.875 -19.8,1.551 v -20.68 c 0,-3.328 0.33,-8.652 0.5,-9.148 -0.5,-0.164 -3.99,-0.832 -7.32,-0.832 -3.33,0 -6.82,0.668 -7.32,0.832 0.17,0.496 0.5,5.82 0.5,9.148 v 80.168"
         style="fill:#2c4882;fill-opacity:1;fill-rule:nonzero;stroke:none"
         transform="matrix(0.13333333,0,0,-0.13333333,0,145.6)" />
      <path
         id="path20"
         d="m 2852.01,244.949 v -0.164 h 18.8 c 16.22,0 24.95,7.278 24.95,20.785 0,12.481 -9.98,20.793 -24.95,20.793 -4.45,0 -9.01,-0.621 -13.14,-1.633 v -37.457 z m -7.98,42.578 c 0,3.192 -0.23,7.383 -0.5,8.985 l 1.11,0.008 c 10.22,0.097 21.81,1.492 29.5,1.492 21.45,0 35.76,-12.981 35.76,-32.442 0,-15.59 -11.23,-26.347 -28.45,-27.773 v -0.5 c 2.9,0 11.61,-4.332 15.05,-10.227 l 12.6,-21.648 c 1.67,-2.875 5.62,-6.047 6.09,-6.52 -1.21,-1.992 -4.79,-2.023 -7.96,-2.023 -4.49,0 -9.58,1.094 -11.15,3.809 l -10.3,17.898 c -7.58,13.156 -14.81,14.723 -24.78,14.887 h -3.33 v -26.114 c 0,-3.328 0.33,-8.652 0.5,-9.148 -0.5,-0.164 -3.99,-0.832 -7.32,-0.832 -3.33,0 -6.82,0.668 -7.32,0.832 0.16,0.496 0.5,5.82 0.5,9.148 v 80.168"
         style="fill:#2c4882;fill-opacity:1;fill-rule:nonzero;stroke:none"
         transform="matrix(0.13333333,0,0,-0.13333333,0,145.6)" />
      <path
         id="path21"
         d="m 2982.25,288.695 c 0,3.321 -0.5,9.317 -0.5,9.317 0.5,-0.172 9.82,-0.504 13.15,-0.504 h 37.58 c 8.82,0 9.99,0 9.99,-6.82 0,-3.321 -0.67,-5.657 -0.83,-6.153 -0.5,0.164 -5.83,0.496 -9.16,0.496 h -28.6 c -2.7,0 -6.61,0.223 -7.99,0.305 v -25.582 l -6.2,-2.258 c 0.07,-0.082 0.15,-0.156 0.21,-0.238 0,0 5.17,0.336 8.49,0.336 h 17.46 c 3.33,0 8.48,0.324 8.98,0.496 0.17,-0.496 1.01,-3.824 1.01,-7.152 0,-3.329 -0.84,-5.825 -1.01,-6.325 -0.5,0.172 -5.65,0.5 -8.98,0.5 h -19.96 v -35.191 c 1.44,0.098 4.17,0.262 6.49,0.262 h 30.1 c 3.33,0 8.66,0.336 9.16,0.496 0.16,-0.496 0.83,-2.821 0.83,-6.149 0,-6.82 -1.17,-6.82 -9.99,-6.82 h -37.75 c -3.33,0 -12.48,-0.332 -12.98,-0.496 0.18,0.496 0.5,5.824 0.5,9.144 v 82.336"
         style="fill:#2c4882;fill-opacity:1;fill-rule:nonzero;stroke:none"
         transform="matrix(0.13333333,0,0,-0.13333333,0,145.6)" />
      <path
         id="path22"
         d="m 3137.51,207.688 c 15.16,0 25.28,5.457 25.28,13.636 0,8.43 -12.88,14.481 -25.98,21.383 -13.54,7.137 -27.31,15.18 -27.31,27.691 0,16.762 12.17,27.942 30.44,27.942 9.39,0 21.34,-2.488 26.66,-3.895 1.46,-0.382 1.93,-1.468 1.93,-2.765 0,-0.856 -0.21,-1.809 -0.47,-2.707 l -2.53,-8.125 c -5.27,2.129 -16.17,6.183 -22.76,6.183 -11.48,0 -19.13,-5.328 -19.13,-13.304 0,-7.399 9.03,-12.512 19.66,-17.938 15.18,-7.758 33.62,-16.156 33.62,-32.801 0,-15.66 -14.63,-26.109 -36.59,-26.109 -9.5,0 -23.3,2.48 -29.37,3.926 -1.45,0.383 -2.05,1.433 -2.05,2.73 0,0.856 0.19,1.82 0.47,2.719 l 2.54,8.113 c 5.27,-2.129 19,-6.679 25.59,-6.679"
         style="fill:#2c4882;fill-opacity:1;fill-rule:nonzero;stroke:none"
         transform="matrix(0.13333333,0,0,-0.13333333,0,145.6)" />
      <path
         id="path23"
         d="m 3257.2,237.137 0.15,-0.344 10.69,0.84 h 31.32 l -5.57,22.285 c -4.56,18.254 -5.38,25.945 -12.15,25.945 -6.75,0 -7.55,-7.683 -12.13,-25.945 l -5,-19.879 z m -0.34,27.105 c 4.55,18.735 9.77,34.098 24.78,34.098 15.02,0 20.24,-15.363 24.79,-34.098 l 13.8,-56.883 c 0.79,-3.234 2,-9.148 2,-9.148 -0.49,-0.164 -3.82,-0.832 -7.15,-0.832 -3.33,0 -6.66,0.668 -7.15,0.832 v 0.668 c 0,1.664 -0.32,5.773 -1,8.48 l -4.45,17.793 h -41.66 l -4.46,-17.793 c -0.67,-2.707 -0.99,-6.816 -0.99,-8.48 v -0.668 c -0.5,-0.164 -3.83,-0.832 -7.15,-0.832 -3.33,0 -6.66,0.668 -7.16,0.832 0,0 1.22,5.914 2,9.148 l 13.8,56.883"
         style="fill:#2c4882;fill-opacity:1;fill-rule:nonzero;stroke:none"
         transform="matrix(0.13333333,0,0,-0.13333333,0,145.6)" />
      <path
         id="path24"
         d="m 3399.25,244.949 v -0.164 h 18.8 c 16.21,0 24.95,7.278 24.95,20.785 0,12.481 -9.98,20.793 -24.95,20.793 -4.45,0 -9.01,-0.621 -13.14,-1.633 v -37.457 z m -7.98,42.578 c 0,3.192 -0.23,7.383 -0.5,8.985 l 1.11,0.008 c 10.22,0.097 21.81,1.492 29.5,1.492 21.45,0 35.76,-12.981 35.76,-32.442 0,-15.59 -11.23,-26.347 -28.45,-27.773 v -0.5 c 2.9,0 11.61,-4.332 15.04,-10.227 l 12.61,-21.648 c 1.67,-2.875 5.62,-6.047 6.09,-6.52 -1.21,-1.992 -4.8,-2.023 -7.95,-2.023 -4.5,0 -9.6,1.094 -11.16,3.809 l -10.3,17.898 c -7.58,13.156 -14.81,14.723 -24.79,14.887 h -3.32 v -26.114 c 0,-3.328 0.33,-8.652 0.49,-9.148 -0.49,-0.164 -3.98,-0.832 -7.31,-0.832 -3.33,0 -6.82,0.668 -7.32,0.832 0.16,0.496 0.5,5.82 0.5,9.148 v 80.168"
         style="fill:#2c4882;fill-opacity:1;fill-rule:nonzero;stroke:none"
         transform="matrix(0.13333333,0,0,-0.13333333,0,145.6)" />
      <path
         id="path25"
         d="m 3529.32,287.863 c 0,3.321 -0.34,8.485 -0.5,8.981 0.5,0.164 3.99,0.996 7.32,0.996 3.33,0 6.82,-0.832 7.32,-0.996 -0.17,-0.496 -0.5,-5.653 -0.5,-8.981 v -80.504 c 0,-3.328 0.33,-8.652 0.5,-9.148 -0.5,-0.164 -3.99,-0.832 -7.32,-0.832 -3.33,0 -6.82,0.668 -7.32,0.832 0.16,0.496 0.5,5.82 0.5,9.148 v 80.504"
         style="fill:#2c4882;fill-opacity:1;fill-rule:nonzero;stroke:none"
         transform="matrix(0.13333333,0,0,-0.13333333,0,145.6)" />
      <path
         id="path26"
         d="m 3628.13,237.137 0.15,-0.344 10.69,0.84 h 31.32 l -5.57,22.285 c -4.56,18.254 -5.38,25.945 -12.15,25.945 -6.75,0 -7.55,-7.683 -12.13,-25.945 l -5,-19.879 z m -0.34,27.105 c 4.55,18.735 9.77,34.098 24.78,34.098 15.02,0 20.24,-15.363 24.79,-34.098 l 13.81,-56.883 c 0.78,-3.234 1.99,-9.148 1.99,-9.148 -0.49,-0.164 -3.82,-0.832 -7.15,-0.832 -3.33,0 -6.66,0.668 -7.15,0.832 v 0.668 c 0,1.664 -0.32,5.773 -1,8.48 l -4.45,17.793 h -41.66 l -4.46,-17.793 c -0.67,-2.707 -0.99,-6.816 -0.99,-8.48 v -0.668 c -0.5,-0.164 -3.83,-0.832 -7.15,-0.832 -3.33,0 -6.66,0.668 -7.16,0.832 0,0 1.22,5.914 2,9.148 l 13.8,56.883"
         style="fill:#2c4882;fill-opacity:1;fill-rule:nonzero;stroke:none"
         transform="matrix(0.13333333,0,0,-0.13333333,0,145.6)" />
      <path
         id="path27"
         d="m 3762.19,287.863 c 0,3.321 -0.34,8.485 -0.5,8.981 0.5,0.164 3.99,0.996 7.32,0.996 3.33,0 6.82,-0.832 7.32,-0.996 -0.17,-0.496 -0.5,-5.653 -0.5,-8.981 v -80.504 c 0,-3.328 0.33,-8.652 0.5,-9.148 -0.5,-0.164 -3.99,-0.832 -7.32,-0.832 -3.33,0 -6.82,0.668 -7.32,0.832 0.16,0.496 0.5,5.82 0.5,9.148 v 80.504"
         style="fill:#2c4882;fill-opacity:1;fill-rule:nonzero;stroke:none"
         transform="matrix(0.13333333,0,0,-0.13333333,0,145.6)" />
      <path
         id="path28"
         d="m 3874.36,207.688 c 15.16,0 25.28,5.457 25.28,13.636 0,8.43 -12.88,14.481 -25.98,21.383 -13.54,7.137 -27.31,15.18 -27.31,27.691 0,16.762 12.18,27.942 30.44,27.942 9.4,0 21.34,-2.488 26.66,-3.895 1.47,-0.382 1.93,-1.468 1.93,-2.765 0,-0.856 -0.2,-1.809 -0.46,-2.707 l -2.54,-8.125 c -5.27,2.129 -16.17,6.183 -22.76,6.183 -11.48,0 -19.13,-5.328 -19.13,-13.304 0,-7.399 9.03,-12.512 19.66,-17.938 15.18,-7.758 33.62,-16.156 33.62,-32.801 0,-15.66 -14.63,-26.109 -36.59,-26.109 -9.49,0 -23.3,2.48 -29.37,3.926 -1.45,0.383 -2.05,1.433 -2.05,2.73 0,0.856 0.2,1.82 0.47,2.719 l 2.54,8.113 c 5.27,-2.129 19,-6.679 25.59,-6.679"
         style="fill:#2c4882;fill-opacity:1;fill-rule:nonzero;stroke:none"
         transform="matrix(0.13333333,0,0,-0.13333333,0,145.6)" />
      <path
         id="path29"
         d="m 1208.97,594.699 c 0,-83.031 35.08,-125.976 125.98,-125.976 37.22,0 71.58,6.445 103.08,18.613 16.46,6.437 21.47,2.144 21.47,-15.75 v -8.59 c 0,-15.035 -4.3,-20.762 -21.47,-28.633 -26.49,-12.16 -60.84,-17.886 -101.64,-17.886 -125.27,0 -183.96,55.828 -183.96,178.222 v 114.528 c 0,123.836 58.69,186.105 182.52,186.105 35.8,0 68.72,-6.437 99.5,-18.605 17.18,-6.446 20.75,-12.887 20.75,-27.204 v -9.304 c 0,-17.895 -7.15,-22.906 -22.18,-16.465 -30.07,12.887 -63.71,19.328 -100.21,19.328 -86.62,0 -123.84,-42.234 -123.84,-133.855 V 594.699"
         style="fill:#8e1825;fill-opacity:1;fill-rule:nonzero;stroke:none"
         transform="matrix(0.13333333,0,0,-0.13333333,0,145.6)" />
      <path
         id="path30"
         d="m 1782.34,633.359 c 0,68.715 -24.33,99.493 -102.36,99.493 -79.45,0 -103.78,-30.778 -103.78,-99.493 v -66.574 c 0,-68.715 25.76,-99.488 103.78,-99.488 78.03,0 102.36,30.773 102.36,99.488 z m -259.83,-66.574 v 66.574 c 0,100.207 52.25,150.313 157.47,150.313 110.95,0 156.05,-52.254 156.05,-150.313 v -66.574 c 0,-100.207 -52.26,-150.308 -156.05,-150.308 -111.66,0 -157.47,52.246 -157.47,150.308"
         style="fill:#8e1825;fill-opacity:1;fill-rule:nonzero;stroke:none"
         transform="matrix(0.13333333,0,0,-0.13333333,0,145.6)" />
      <path
         id="path31"
         d="m 1967.04,446.535 c 0,-19.324 -3.58,-22.906 -22.9,-22.906 h -7.88 c -17.89,0 -22.9,3.582 -22.9,22.906 V 649.82 c 0,89.477 50.1,133.852 149.6,133.852 105.22,0 148.88,-47.238 148.88,-133.852 V 446.535 c 0,-19.324 -3.58,-22.906 -22.9,-22.906 h -8.59 c -19.33,0 -22.91,3.582 -22.91,22.906 V 649.82 c 0,57.262 -22.19,83.032 -94.48,83.032 -72.3,0 -95.92,-26.489 -95.92,-83.032 V 446.535"
         style="fill:#8e1825;fill-opacity:1;fill-rule:nonzero;stroke:none"
         transform="matrix(0.13333333,0,0,-0.13333333,0,145.6)" />
      <path
         id="path32"
         d="m 2287.74,462.285 c 0,17.891 5.73,22.188 22.9,18.61 33.65,-9.309 68.72,-14.317 105.22,-14.317 55.12,0 78.03,10.016 78.03,40.801 0,22.906 -12.17,35.07 -46.53,51.539 l -87.33,41.508 c -45.81,22.191 -66.56,43.668 -66.56,93.058 0,62.274 40.08,90.188 126.69,90.188 33.64,0 62.98,-4.293 89.47,-13.602 17.18,-5.726 21.48,-10.019 21.48,-26.484 v -6.441 c 0,-17.891 -6.45,-22.192 -22.91,-17.18 -27.91,9.305 -57.98,13.601 -89.47,13.601 -52.26,0 -72.3,-11.449 -72.3,-40.082 0,-20.043 12.89,-35.793 37.94,-47.246 l 90.9,-41.511 c 48.68,-22.907 71.58,-45.098 71.58,-95.922 0,-63.7 -42.95,-92.328 -135.28,-92.328 -33.64,0 -67.28,4.289 -100.93,13.597 -17.89,5.008 -22.9,11.453 -22.9,26.485 v 5.726"
         style="fill:#8e1825;fill-opacity:1;fill-rule:nonzero;stroke:none"
         transform="matrix(0.13333333,0,0,-0.13333333,0,145.6)" />
      <path
         id="path33"
         d="m 2673.56,550.324 c 0,-56.551 23.63,-83.027 95.92,-83.027 72.29,0 95.2,25.766 95.2,83.027 v 203.285 c 0,17.895 5.02,22.907 22.9,22.907 h 7.88 c 19.33,0 22.9,-5.012 22.9,-22.907 V 550.324 c 0,-86.609 -43.66,-133.847 -148.88,-133.847 -99.5,0 -149.6,44.375 -149.6,133.847 v 203.285 c 0,17.895 5.01,22.907 22.91,22.907 h 7.87 c 19.32,0 22.9,-5.012 22.9,-22.907 V 550.324"
         style="fill:#8e1825;fill-opacity:1;fill-rule:nonzero;stroke:none"
         transform="matrix(0.13333333,0,0,-0.13333333,0,145.6)" />
      <path
         id="path34"
         d="m 3000.72,901.777 c 0,19.325 3.57,22.907 22.9,22.907 h 7.87 c 17.89,0 22.91,-3.582 22.91,-22.907 V 524.559 c 0,-36.512 12.16,-54.403 36.5,-54.403 h 3.58 c 17.89,0 22.19,-1.433 22.19,-18.613 v -5.008 c 0,-17.898 -3.58,-23.625 -20.04,-26.488 -3.58,-0.719 -7.87,-0.719 -12.89,-0.719 -49.38,0 -83.02,29.352 -83.02,95.922 v 386.527"
         style="fill:#8e1825;fill-opacity:1;fill-rule:nonzero;stroke:none"
         transform="matrix(0.13333333,0,0,-0.13333333,0,145.6)" />
      <path
         id="path35"
         d="m 3136.01,748.598 c 0,16.465 4.29,20.043 19.32,22.191 l 40.8,5.727 7.88,73.722 c 0.72,15.035 5.01,19.325 21.47,19.325 h 5.01 c 15.03,0 19.33,-4.29 19.33,-19.325 v -73.722 h 115.95 c 17.9,0 22.2,-4.297 22.2,-22.192 v -6.441 c 0,-17.895 -4.3,-22.192 -22.2,-22.192 H 3249.82 V 543.883 c 0,-55.117 22.9,-75.871 65.85,-75.871 25.05,0 46.52,2.144 63.7,7.156 16.47,3.578 21.48,-0.719 21.48,-18.609 v -6.442 c 0,-14.316 -4.3,-20.762 -22.19,-25.769 -19.32,-5.02 -40.08,-7.164 -62.28,-7.164 -80.17,0 -120.25,42.23 -120.25,126.699 v 181.808 h -40.8 c -16.47,0 -19.32,2.864 -19.32,19.329 v 3.578"
         style="fill:#8e1825;fill-opacity:1;fill-rule:nonzero;stroke:none"
         transform="matrix(0.13333333,0,0,-0.13333333,0,145.6)" />
      <path
         id="path36"
         d="m 3670.72,586.113 h -83.75 c -63.7,0 -93.05,-17.179 -93.05,-62.273 0,-40.801 26.49,-60.844 80.17,-60.844 65.85,0 96.63,15.031 96.63,68.715 z m 53.68,-56.547 c 0,-79.449 -46.52,-113.089 -149.59,-113.089 -82.32,0 -134.57,32.921 -134.57,107.363 0,74.441 48.67,104.504 146.02,104.504 h 84.46 v 42.949 c 0,48.672 -32.92,65.141 -93.77,65.141 -31.49,0 -57.98,-2.868 -78.73,-7.879 -17.18,-3.575 -22.91,0.715 -22.91,17.894 v 5.727 c 0,16.465 4.3,20.758 21.47,24.34 23.63,5.007 49.4,7.156 77.31,7.156 100.21,0 150.31,-37.223 150.31,-112.379 V 529.566"
         style="fill:#8e1825;fill-opacity:1;fill-rule:nonzero;stroke:none"
         transform="matrix(0.13333333,0,0,-0.13333333,0,145.6)" />
      <path
         id="path37"
         d="m 3855.4,446.535 c 0,-19.324 -3.57,-22.906 -22.9,-22.906 h -7.87 c -17.89,0 -22.91,3.582 -22.91,22.906 V 659.84 c 0,82.316 40.81,123.832 122.4,123.832 8.6,0 16.47,-0.715 22.91,-1.43 17.89,-2.148 21.47,-7.164 21.47,-25.054 v -7.161 c 0,-17.894 -4.29,-21.472 -22.18,-18.609 -8.59,0.715 -15.75,1.434 -22.2,1.434 -51.54,0 -68.72,-24.336 -68.72,-75.875 V 446.535"
         style="fill:#8e1825;fill-opacity:1;fill-rule:nonzero;stroke:none"
         transform="matrix(0.13333333,0,0,-0.13333333,0,145.6)" />
    </g>
  </g>
</svg>
