<svg width="36" height="37" viewBox="0 0 36 37" fill="none" xmlns="http://www.w3.org/2000/svg">
<path d="M23.7299 11.5328L22.2299 12.1328C21.9149 11.8928 21.5849 11.6978 21.2249 11.5478L20.9999 9.95776C20.9699 9.80776 20.8499 9.70276 20.6999 9.70276H18.2999C18.1499 9.70276 18.0299 9.80776 18.0149 9.95776L17.7899 11.5478C17.4299 11.6978 17.0849 11.8928 16.7849 12.1328L15.2849 11.5328C15.1499 11.4878 14.9849 11.5328 14.9249 11.6678L13.7249 13.7378C13.6499 13.8728 13.6799 14.0378 13.7999 14.1278L15.0749 15.1178C15.0299 15.2978 14.9999 15.5078 14.9999 15.7028C14.9999 15.8978 15.0149 16.0928 15.0449 16.2878L13.7849 17.2778C13.6649 17.3678 13.6349 17.5328 13.7099 17.6528L14.9099 19.7378C14.9849 19.8728 15.1349 19.9178 15.2849 19.8728L16.7699 19.2728C17.0849 19.5128 17.4149 19.7078 17.7899 19.8578L17.9999 21.4478C18.0299 21.5978 18.1499 21.7028 18.2999 21.7028H20.6999C20.8499 21.7028 20.9699 21.5978 20.9999 21.4478L21.2249 19.8578C21.5849 19.7078 21.9299 19.5128 22.2299 19.2728L23.7149 19.8728C23.8499 19.9328 24.0149 19.8728 24.0749 19.7378L25.2749 17.6528C25.3499 17.5178 25.3199 17.3678 25.1999 17.2778L23.9549 16.2878C23.9849 16.0928 23.9999 15.8978 23.9999 15.7028C23.9999 15.4928 23.9849 15.2978 23.9549 15.1178L25.2299 14.1278C25.3499 14.0378 25.3799 13.8728 25.3049 13.7378L24.1049 11.6678C24.0299 11.5328 23.8649 11.4878 23.7299 11.5328ZM19.4999 17.8478C18.3149 17.8478 17.3549 16.8878 17.3549 15.7028C17.3549 14.5178 18.3149 13.5578 19.4999 13.5578C20.6849 13.5578 21.6449 14.5178 21.6449 15.7028C21.6449 16.8878 20.6849 17.8478 19.4999 17.8478Z" fill="#931A1D"/>
<path d="M29.9099 14.2928C29.2649 9.38776 25.0649 5.50276 20.1149 5.21776C19.9049 5.20276 19.7099 5.20276 19.4999 5.20276C14.2049 5.20276 9.85489 9.11776 9.11989 14.2028L6.22489 19.4228C5.60989 20.4128 6.32989 21.7028 7.49989 21.7028H8.99989V24.7028C8.99989 26.3528 10.3499 27.7028 11.9999 27.7028H13.4999V32.2028H23.9999V25.1828C27.9299 23.3078 30.5249 19.0628 29.9099 14.2928ZM22.3349 22.6478L20.9999 23.2778V29.2028H16.4999V24.7028H11.9999V18.7028H10.0499L12.0449 15.2078C12.3149 11.2928 15.5249 8.20276 19.4999 8.20276C23.6399 8.20276 26.9999 11.5628 26.9999 15.7028C26.9999 18.8378 25.0649 21.5228 22.3349 22.6478Z" fill="#931A1D"/>
</svg>
